<svg xmlns="http://www.w3.org/2000/svg" width="83.58" height="26.012" viewBox="0 0 83.58 26.012">
  <path id="logo" data-name="logo" d="M10.584-14.2H7.728v-.644a3.049,3.049,0,0,0-.462-1.694,1.709,1.709,0,0,0-1.554-.714,1.8,1.8,0,0,0-.952.224,1.877,1.877,0,0,0-.588.56,2.368,2.368,0,0,0-.308.826,5.393,5.393,0,0,0-.084.966,9.467,9.467,0,0,0,.042.98,1.86,1.86,0,0,0,.21.7,1.557,1.557,0,0,0,.49.532,4.5,4.5,0,0,0,.882.448l2.184.868a5.415,5.415,0,0,1,1.54.854,3.692,3.692,0,0,1,.924,1.134,5.3,5.3,0,0,1,.42,1.526,15.1,15.1,0,0,1,.112,1.946,10.261,10.261,0,0,1-.252,2.338A4.925,4.925,0,0,1,9.52-1.512,4.031,4.031,0,0,1,7.98-.28,5.432,5.432,0,0,1,5.656.168,5.084,5.084,0,0,1,3.724-.2,4.6,4.6,0,0,1,2.184-1.2,4.905,4.905,0,0,1,1.162-2.7,4.549,4.549,0,0,1,.784-4.564V-5.628H3.64v.9A2.333,2.333,0,0,0,4.1-3.318a1.8,1.8,0,0,0,1.554.63A2.506,2.506,0,0,0,6.79-2.9a1.508,1.508,0,0,0,.63-.6,2.211,2.211,0,0,0,.266-.938q.042-.546.042-1.218a12.069,12.069,0,0,0-.056-1.288,2.217,2.217,0,0,0-.224-.812,1.574,1.574,0,0,0-.518-.5,6.638,6.638,0,0,0-.854-.42L4.032-9.52a4.527,4.527,0,0,1-2.478-2,6.887,6.887,0,0,1-.63-3.122,7.243,7.243,0,0,1,.308-2.128,4.84,4.84,0,0,1,.924-1.736,4.235,4.235,0,0,1,1.5-1.162,5,5,0,0,1,2.17-.434,4.738,4.738,0,0,1,1.946.392A5.013,5.013,0,0,1,9.3-18.676a4.326,4.326,0,0,1,1.288,3.08Zm1.96,0v-4.312H15.4V-14.2h1.764v2.24H15.4v7.868a2.469,2.469,0,0,0,.1.784.779.779,0,0,0,.322.42,1.215,1.215,0,0,0,.546.168q.322.028.8.028V0H15.988A3.857,3.857,0,0,1,14.35-.308a2.954,2.954,0,0,1-1.05-.784,3.08,3.08,0,0,1-.574-1.078,4.009,4.009,0,0,1-.182-1.162v-8.624H11.116V-14.2Zm14.252,0V0H23.94V-1.372h-.056A4.059,4.059,0,0,1,22.806-.266,2.777,2.777,0,0,1,21.2.168a3.269,3.269,0,0,1-1.064-.182,2.462,2.462,0,0,1-.952-.6,3.033,3.033,0,0,1-.672-1.078,4.52,4.52,0,0,1-.252-1.61V-14.2h2.856v9.828a1.9,1.9,0,0,0,.364,1.232,1.258,1.258,0,0,0,1.036.448,1.2,1.2,0,0,0,1.12-.5,2.817,2.817,0,0,0,.308-1.456V-14.2ZM32-4.62a2.591,2.591,0,0,0,.336,1.4,1.166,1.166,0,0,0,1.064.532,1.261,1.261,0,0,0,1.036-.49,1.977,1.977,0,0,0,.392-1.274V-9.968a1.555,1.555,0,0,0-.406-1.106,1.34,1.34,0,0,0-1.022-.434A1.17,1.17,0,0,0,32.3-11,2.292,2.292,0,0,0,32-9.828ZM34.832,0V-1.288q-.28.308-.532.574a2.951,2.951,0,0,1-.56.462,2.653,2.653,0,0,1-.7.308,3.384,3.384,0,0,1-.924.112,2.562,2.562,0,0,1-2.492-1.344,3.8,3.8,0,0,1-.364-1.176,12.421,12.421,0,0,1-.112-1.876v-5.4a21.891,21.891,0,0,1,.084-2.268A2.7,2.7,0,0,1,30.548-14a2.842,2.842,0,0,1,1.6-.364,2.953,2.953,0,0,1,1.5.378,3.454,3.454,0,0,1,1.134,1.078h.056v-7.028h2.856V0Zm4-14.2H41.86l1.96,8.848h.056L45.808-14.2h2.94L44.66,2.464a4.866,4.866,0,0,1-.63,1.568,3.9,3.9,0,0,1-.938,1.008,3.265,3.265,0,0,1-1.134.546,5.008,5.008,0,0,1-1.246.154h-.784V3.052h.644A2.131,2.131,0,0,0,41.3,2.94a1.176,1.176,0,0,0,.56-.5,4.924,4.924,0,0,0,.42-1.106q.2-.714.448-1.974ZM55.272,0V-19.936h2.856v17.08h5.656V0Zm9.94-9.436a10.529,10.529,0,0,1,.112-1.6,3.874,3.874,0,0,1,.42-1.288A3.86,3.86,0,0,1,67.186-13.8a4.376,4.376,0,0,1,2.282-.56,4.376,4.376,0,0,1,2.282.56,3.86,3.86,0,0,1,1.442,1.484,3.874,3.874,0,0,1,.42,1.288,10.529,10.529,0,0,1,.112,1.6V-4.76a10.529,10.529,0,0,1-.112,1.6,3.874,3.874,0,0,1-.42,1.288A3.86,3.86,0,0,1,71.75-.392a4.376,4.376,0,0,1-2.282.56,4.376,4.376,0,0,1-2.282-.56,3.86,3.86,0,0,1-1.442-1.484,3.874,3.874,0,0,1-.42-1.288,10.529,10.529,0,0,1-.112-1.6Zm2.856,5.124a1.731,1.731,0,0,0,.378,1.218,1.329,1.329,0,0,0,1.022.406,1.329,1.329,0,0,0,1.022-.406,1.731,1.731,0,0,0,.378-1.218V-9.884A1.731,1.731,0,0,0,70.49-11.1a1.329,1.329,0,0,0-1.022-.406,1.329,1.329,0,0,0-1.022.406,1.731,1.731,0,0,0-.378,1.218ZM78.68,1.652a1.6,1.6,0,0,0,.406.952,1.366,1.366,0,0,0,1.106.448A1.15,1.15,0,0,0,81.2,2.618a1.866,1.866,0,0,0,.308-1.106v-2.8h-.056A3.454,3.454,0,0,1,80.318-.21a3.009,3.009,0,0,1-1.526.378A2.562,2.562,0,0,1,76.3-1.176a3.8,3.8,0,0,1-.364-1.176,12.421,12.421,0,0,1-.112-1.876v-5.4a21.891,21.891,0,0,1,.084-2.268A2.7,2.7,0,0,1,77.224-14a2.842,2.842,0,0,1,1.6-.364,3.232,3.232,0,0,1,.91.112,2.7,2.7,0,0,1,.686.308,2.952,2.952,0,0,1,.56.462q.252.266.532.574V-14.2h2.856V1.736a4.792,4.792,0,0,1-.238,1.47,3.6,3.6,0,0,1-.77,1.33,3.947,3.947,0,0,1-1.344.994,4.544,4.544,0,0,1-1.932.378,4.673,4.673,0,0,1-1.344-.21,3.52,3.52,0,0,1-1.288-.714A3.984,3.984,0,0,1,76.4,3.71a5.614,5.614,0,0,1-.574-2.058Zm0-6.02a2.292,2.292,0,0,0,.294,1.176,1.17,1.17,0,0,0,1.106.5A1.34,1.34,0,0,0,81.1-3.122a1.555,1.555,0,0,0,.406-1.106V-9.744a1.977,1.977,0,0,0-.392-1.274,1.261,1.261,0,0,0-1.036-.49,1.166,1.166,0,0,0-1.064.532,2.591,2.591,0,0,0-.336,1.4Z" transform="translate(-0.784 20.104)" fill="#333"/>
</svg>
