<svg xmlns="http://www.w3.org/2000/svg" width="581.36" height="138.732" viewBox="0 0 581.36 138.732">
  <path id="toptext" data-name="toptext" d="M44.408-.676H34.372V-27.768H44.408ZM7.592-27.768h9.672V-.676H7.592Zm25.272,7.9H18.772v-7.9H32.864ZM18.772-8.944H32.864V-.676H18.772Zm14.092-1.508H18.772v-7.9H32.864ZM48.672-37.7v-1.508H3.484V-37.7H24.752c-.624,2.6-1.612,6.084-2.444,8.424H6.032V3.744h1.56V.832H44.408V3.744h1.56v-33.02h-22.1C24.752-31.668,25.74-35,26.52-37.7Zm18.98,13.78c4.836-.416,11.388-.936,17.992-1.508a20.082,20.082,0,0,1,1.508,3.38l1.248-.676a43.446,43.446,0,0,0-6.188-10.608l-1.2.572a49.347,49.347,0,0,1,3.9,5.98c-4.264.312-8.424.624-12.064.884,1.56-3.432,3.328-8.476,4.68-12.428H88.3v-1.56H68.484v1.56h7.28a93.306,93.306,0,0,1-4.472,12.532c-1.4.1-2.7.208-3.848.26Zm-.78-18.824C64.116-34.372,59.7-26.052,54.808-20.592c.364.312.884.936,1.144,1.2a60.026,60.026,0,0,0,6.656-9.828V3.692h1.508V-32.136a77.693,77.693,0,0,0,4.212-10.3Zm12.064,28.6h8.32v-1.508h-8.32v-7.124H77.428v7.124H68.64v1.508h8.788V-2.7c-3.9.676-7.54,1.248-10.348,1.664L67.392.572c5.72-.988,13.572-2.392,21.32-3.8l-.1-1.352C85.384-4,82.056-3.432,78.936-2.912Zm11.076,5.2H91.52v-27.3H90.012Zm9.464-33.28V1.04c0,.78-.208.988-.884,1.04-.728,0-3.016.052-5.876-.052A16.939,16.939,0,0,1,93.548,3.8a25.9,25.9,0,0,0,5.928-.364c1.04-.26,1.56-.884,1.56-2.444V-42.224Zm30.056,1.56-1.976-.208a41.6,41.6,0,0,1-1.924,9.36,66.81,66.81,0,0,1-6.916.312,43.417,43.417,0,0,1-5.824-.312L113-29.8c1.664.052,3.9.1,5.668.1,2.132,0,4.264-.1,6.448-.312-2.392,6.656-7.176,15.652-11.648,20.644l1.716.936A91.567,91.567,0,0,0,126.724-30.16a67.809,67.809,0,0,0,9.88-1.976l-.052-1.716a46.356,46.356,0,0,1-9.308,2.132C128.128-34.684,128.96-38.584,129.532-40.664ZM126.464-4.472c0-2.964,3.224-5.2,7.852-5.2a20.6,20.6,0,0,1,6.552,1.04c0,1.352.052,2.652.052,3.692,0,2.756-1.768,5.356-6.864,5.356C128.8.416,126.464-1.56,126.464-4.472Zm15.392-20.28h-1.612c.052,4.264.364,9.932.572,14.612a24.144,24.144,0,0,0-6.6-.884c-4.472,0-9.256,2.08-9.256,6.6,0,4.628,4.212,6.344,9.2,6.344,5.46,0,8.164-2.964,8.164-6.448,0-.988-.052-2.288-.052-3.64a34.551,34.551,0,0,1,9.776,6.188l.988-1.456a34.8,34.8,0,0,0-10.868-6.292c-.1-3.8-.364-8.06-.416-10.5C141.7-21.684,141.752-22.672,141.856-24.752Zm11.856,0L154.7-26.1a63.283,63.283,0,0,0-11.44-6.76l-.832,1.2C145.756-30.108,151.112-27.092,153.712-24.752ZM188.5-34.892a32.479,32.479,0,0,0-4.42-8.476l-1.248.468a33.468,33.468,0,0,1,4.368,8.58Zm-19.292-6.916a40.349,40.349,0,0,1,5.252,7.644l1.248-.78a30.911,30.911,0,0,0-5.252-7.488Zm-2.08,9.2H206.8v8.944h1.508v-10.5H198.9a82.225,82.225,0,0,0,6.4-7.956l-1.4-.78a63.743,63.743,0,0,1-6.812,8.736H165.568v10.5h1.56ZM209.56-13.832H187.512v-3.12c4.732-1.872,10.348-4.94,13.78-8.216l-1.092-.78-.364.1h-27.56v1.508H198.12a46.618,46.618,0,0,1-11.336,6.292h-.832v4.212h-21.84v1.56h21.84V1.04c0,.78-.208,1.04-1.248,1.144-1.092.1-4.264.1-8.944,0a11.408,11.408,0,0,1,.832,1.508c5.044,0,7.7,0,9.048-.312,1.4-.26,1.872-.884,1.872-2.392v-13.26H209.56ZM241.02-23.4c4.108-1.456,9.464-3.536,14.612-5.46l-.26-1.3c-5.616,2.028-11.336,4.108-15.132,5.408Zm10.244-8.58a25.861,25.861,0,0,0-7.124-5.1l-1.04.988a24.744,24.744,0,0,1,7.02,5.252Zm-15.5,9c0,.572-.156.78-.884.78-.676.052-2.86.052-5.772,0a5.541,5.541,0,0,1,.624,1.4c3.432,0,5.3.052,6.344-.26.936-.312,1.2-.884,1.2-1.924V-40.2h-18.72v1.508h17.212Zm-14.2-13.208a28.555,28.555,0,0,1,7.072,5.512l1.092-1.092a26.24,26.24,0,0,0-7.02-5.408Zm10.3,7.02c-5.356,2.132-10.764,4.316-14.4,5.564l.78,1.4c3.952-1.56,9-3.64,13.936-5.616Zm22.724,20.28H226.2v-7.072h28.392ZM226.2.1V-7.332h28.392V.1Zm13.156-22.62a35.358,35.358,0,0,1-2.548,5.044H224.64V3.848h1.56V1.612h28.392V3.848h1.56v-21.32H238.42c.832-1.3,1.664-2.912,2.444-4.42ZM260.312-40.2H241.124v1.508H258.8v15.912c0,.624-.156.728-.884.78s-2.964.052-5.928-.052a5.167,5.167,0,0,1,.624,1.508c3.484,0,5.46,0,6.448-.312s1.248-.832,1.248-1.924Zm55.276,15.912-.416.1H301.964l.468-.676c-1.716-1.04-4.108-2.34-6.76-3.744A75.53,75.53,0,0,0,310.7-39.728l-1.2-.832-.364.1H275.652v1.508h31.98a68.127,68.127,0,0,1-13.52,9.568c-3.484-1.872-7.176-3.692-10.5-5.2l-.988,1.04c5.928,2.756,13.312,6.708,17.784,9.36H270.92v1.508h22.412V.728c0,.832-.26,1.092-1.2,1.144-.988.052-4.16.1-8.32,0a5.167,5.167,0,0,1,.624,1.508c4.732,0,7.436,0,8.684-.312,1.248-.26,1.716-.832,1.716-2.392V-22.672h19.188a58.463,58.463,0,0,1-8.736,10.036l1.144.832c3.38-2.808,7.02-7.592,10.244-11.856ZM327.808-35h39.1v8.06h1.56v-9.62H348.036v-6.656h-1.56v6.656H326.248v9.62h1.56ZM358.956,1.2a47.5,47.5,0,0,1-10.92-1.04V-13.208H364.78v-1.508H348.036V-25.532h15.6v-1.56H331.708v1.56h14.768V-.26c-5.512-1.664-9.672-5.1-12.168-11.856a65.691,65.691,0,0,0,1.456-7.228L334.2-19.5c-1.352,9.88-4.42,17.524-10.4,22.36a9.4,9.4,0,0,1,1.3.988c3.9-3.432,6.656-8.008,8.528-13.78C338.312.624,346.84,2.756,358.9,2.756h11.284a4.228,4.228,0,0,1,.728-1.56ZM421.148-18.1c0-9.724-7.332-17.94-18.824-17.94-11.96,0-21.58,9.412-21.58,20.02,0,8.424,4.472,12.636,7.956,12.636,3.952,0,7.748-4.524,10.972-15.392a98.973,98.973,0,0,0,3.016-15.808c10.764.156,17,7.956,17,16.38,0,10.348-7.9,15.548-14.612,16.952a30.05,30.05,0,0,1-4.056.468l.884,1.56C413.5-.416,421.148-7.228,421.148-18.1ZM382.2-16.068c0-8.424,7.748-17.888,18.98-18.46a83.432,83.432,0,0,1-3.016,15.34C395.044-8.632,391.456-4.94,388.8-4.94,386.1-4.94,382.2-8.216,382.2-16.068Zm58.552-21.268a27.033,27.033,0,0,1,2.5,5.668l1.508-.468a30.75,30.75,0,0,0-2.34-5.2h11.44v-1.508H438A36.243,36.243,0,0,0,439.92-42.9l-1.508-.364a30.244,30.244,0,0,1-7.384,11.128,10.132,10.132,0,0,1,1.352.936,34.709,34.709,0,0,0,4.732-6.136Zm29.38,30.264V.052H441.844V-7.072Zm-2.7-14.144v6.24H441.844v-6.24Zm-25.584,7.748h27.092v-9.256h-28.6V3.64h1.508V1.56h28.288V3.484h1.508V-8.632h-29.8Zm13.364-19.6h-1.56V-28.5h-20.28v9.2h1.56v-7.7H474.4v7.7h1.56v-9.2H455.208Zm2.34-5.772A25.181,25.181,0,0,0,459.68-42.9l-1.508-.364A26.162,26.162,0,0,1,449.7-32.552c.416.26,1.04.78,1.3.988a27.843,27.843,0,0,0,5.512-5.772h5.3a29.251,29.251,0,0,1,4.056,5.876l1.3-.728a25.218,25.218,0,0,0-3.432-5.148h14.2v-1.508ZM500.032-9.1l-6.4,2.184V-22.464h5.876v-1.508h-5.876V-37.6h6.448V-39.1H484.952V-37.6h7.176v13.624h-6.656v1.508h6.656V-6.4c-2.912.936-5.616,1.82-7.7,2.5l.52,1.56c4.212-1.4,9.88-3.38,15.34-5.252Zm4.784-19.6h10.556v8.944H504.816Zm0-10.348h10.556v8.84H504.816Zm22.88,8.84H516.88v-8.84H527.7Zm0,10.452H516.88V-28.7H527.7ZM516.88.364V-8.944h13.26v-1.508H516.88v-7.8H529.2V-40.56h-25.9v22.308h12.064v7.8h-13v1.508h13V.364H498V1.872h33.852V.364ZM557.388-5.72c0-3.068,3.432-5.252,8.268-5.252a20.042,20.042,0,0,1,6.5,1.04c.052,1.092.052,2.028.052,2.756,0,3.848-1.456,6.6-7.02,6.6C560.456-.572,557.388-2.5,557.388-5.72Zm15.964-33.7h-1.924a26.779,26.779,0,0,1,.1,2.964c-.052,1.82-.052,4.42-.052,7.176-2.028.1-4.108.156-6.188.156-3.016,0-5.616-.156-8.528-.416v1.612c3.016.208,5.46.364,8.372.364,2.132,0,4.212-.052,6.344-.156,0,4.628.416,11.492.624,16.276a22.435,22.435,0,0,0-6.292-.884c-6.552,0-9.828,3.276-9.828,6.708,0,3.9,3.172,6.5,9.88,6.5,6.552,0,7.8-4.316,7.8-7.384,0-.884,0-1.872-.052-2.86a32.331,32.331,0,0,1,9.516,6.6l.988-1.456A33.893,33.893,0,0,0,573.56-10.92c-.208-5.356-.624-11.908-.624-16.9a85.593,85.593,0,0,0,9.88-1.144v-1.56a87.162,87.162,0,0,1-9.88,1.2c0-2.392,0-5.408.1-7.176C573.092-37.44,573.2-38.324,573.352-39.416ZM547.4-39.26l-1.924-.208a14.745,14.745,0,0,1-.208,2.34c-.676,4.576-2.6,14.612-2.6,22.048a66.021,66.021,0,0,0,1.872,16.328L546,1.092c-.052-.364-.156-.988-.208-1.456a8.628,8.628,0,0,1,.156-2.288c.468-2.236,2.6-7.592,3.692-10.556l-1.04-.78c-1.04,2.5-2.7,7.072-3.64,9.984a72.881,72.881,0,0,1-.832-11.128c0-6.448,1.4-15.6,2.7-21.788A17.156,17.156,0,0,1,547.4-39.26ZM15.34,82.676c7.124,0,11.8-4.212,11.8-9.984,0-5.824-3.744-8.06-8.008-9.984l-5.772-2.6c-2.652-1.2-6.6-2.912-6.6-7.644,0-4.264,3.484-7.072,8.736-7.072a12.185,12.185,0,0,1,9.1,3.952l1.2-1.3a13.853,13.853,0,0,0-10.3-4.472c-6.136,0-10.712,3.64-10.712,9.1,0,5.564,4.42,7.8,7.7,9.256l5.772,2.6c3.8,1.716,6.968,3.276,6.968,8.32,0,4.732-3.848,8.008-9.88,8.008A14.759,14.759,0,0,1,4.056,75.6l-1.3,1.352A16.082,16.082,0,0,0,15.34,82.676Zm27.2,0a16.014,16.014,0,0,0,4.264-1.04l-.624-1.56a9.319,9.319,0,0,1-3.484.884c-4,0-4.784-2.444-4.784-5.98V56.312H46.02V54.6H37.908V46.588H36.3L36.088,54.6l-4.368.26v1.456h4.368V74.72C36.088,79.5,37.44,82.676,42.536,82.676Zm19.656,0c3.8,0,6.656-2.184,9.412-5.356h.1L71.916,82h1.612V54.6H71.656V75.084c-3.38,4.056-5.928,5.876-9.308,5.876-4.628,0-6.552-2.912-6.552-8.944V54.6H53.924V72.224C53.924,79.348,56.576,82.676,62.192,82.676Zm32.708,0c3.8,0,6.864-2.028,9.152-4.316h.1l.26,3.64h1.56V40.712H104.1V52.2l.156,5.148c-2.808-2.184-5.1-3.432-8.424-3.432-6.656,0-12.272,5.616-12.272,14.456C83.564,77.632,88.036,82.676,94.9,82.676Zm.156-1.716c-6.084,0-9.516-5.1-9.516-12.584,0-7.072,4.42-12.74,10.192-12.74,2.86,0,5.356,1.04,8.372,3.744V76.228C101.088,79.244,98.228,80.96,95.056,80.96Zm21.788,13.728c4.732,0,7.488-4.576,8.892-8.84L136.656,54.6h-1.924L128.6,72.484c-.78,2.34-1.716,5.252-2.6,7.7h-.26c-1.04-2.444-2.184-5.356-3.068-7.7L115.752,54.6h-2.08l11.336,28.028-.78,2.548c-1.508,4.368-3.848,7.7-7.28,7.7a5.958,5.958,0,0,1-2.288-.468l-.468,1.716A6.038,6.038,0,0,0,116.844,94.688ZM144.612,82h19.6V80.284h-17.68V44.248h-1.924Zm36.92.676c6.552,0,12.168-5.252,12.168-14.3,0-9.2-5.616-14.456-12.168-14.456s-12.168,5.252-12.168,14.456C169.364,77.424,174.98,82.676,181.532,82.676Zm0-1.716c-5.824,0-10.192-5.1-10.192-12.584,0-7.54,4.368-12.74,10.192-12.74s10.244,5.2,10.244,12.74C191.776,75.864,187.356,80.96,181.532,80.96Zm31.1,14.4c7.7,0,12.636-4.576,12.636-9.2,0-4.212-2.756-6.136-8.788-6.136h-6.084c-4.212,0-5.356-1.716-5.356-3.8a5.325,5.325,0,0,1,2.392-4.16,9.334,9.334,0,0,0,4.628,1.248,9.449,9.449,0,0,0,9.412-9.724,9.335,9.335,0,0,0-3.224-7.28H224.8V54.6h-9.152a9.732,9.732,0,0,0-3.588-.676,9.373,9.373,0,0,0-9.412,9.672,10.278,10.278,0,0,0,3.484,7.54v.208a6.416,6.416,0,0,0-3.016,5.044,4.882,4.882,0,0,0,2.444,4.368v.208c-2.548,1.82-4.16,4.368-4.16,6.76C201.4,92.3,205.66,95.364,212.628,95.364ZM212.056,71.6c-3.952,0-7.436-3.276-7.436-8.008,0-4.94,3.38-7.956,7.436-7.956,4.108,0,7.488,3.068,7.488,7.956A7.651,7.651,0,0,1,212.056,71.6Zm.676,22.1c-5.98,0-9.36-2.5-9.36-6.136,0-2.028,1.092-4.316,3.8-6.136a17.455,17.455,0,0,0,3.328.468h6.24c4.316,0,6.6,1.248,6.6,4.472C223.34,89.956,219.284,93.7,212.732,93.7Zm38.844-45.552v1.716a111.213,111.213,0,0,0,20.384,0V48.148C267.176,49.032,256.516,49.188,251.576,48.148Zm-.1,20.176-1.56-.208a26.557,26.557,0,0,0-.78,5.46c0,4.472,3.484,7.072,11.96,7.072A62.809,62.809,0,0,0,273.624,79.5l-.052-1.716a53.808,53.808,0,0,1-12.74,1.352c-8.892,0-10.244-3.224-10.244-5.668A19.39,19.39,0,0,1,251.472,68.324Zm-11.7-24.7-1.976-.208a14.179,14.179,0,0,1-.208,2.288c-.676,4.576-2.548,13.624-2.548,21.06a65.361,65.361,0,0,0,1.82,16.484l1.456-.156c-.052-.364-.156-.936-.208-1.456a8.343,8.343,0,0,1,.208-2.236c.416-2.184,2.5-7.54,3.64-10.556l-1.144-.832c-.988,2.5-2.6,6.968-3.588,9.88a89.5,89.5,0,0,1-.728-11.128c0-6.5,1.4-14.664,2.652-20.852C239.356,44.976,239.564,44.3,239.772,43.624ZM292.864,76.9c0-2.964,3.328-5.408,9.62-5.408a25.712,25.712,0,0,1,5.72.624c.052,1.82.1,3.484.1,4.784,0,4.212-3.224,5.252-6.448,5.252C295.152,82.156,292.864,79.764,292.864,76.9ZM309.5,41.492h-1.768c.052.416.1,1.872.1,2.7v4.836c-.936.052-1.872.052-2.808.052A92.713,92.713,0,0,1,291.3,47.94v1.716c3.12.364,9.88.884,13.78.884.884,0,1.82,0,2.756-.052V57.2c0,.676,0,1.508.052,2.5-1.144.052-2.184.052-3.172.052a107.7,107.7,0,0,1-13.624-.936v1.664c4,.416,9.568.728,13.624.728,1.04,0,2.08,0,3.172-.052.1,2.808.208,6.292.312,9.464a27.649,27.649,0,0,0-5.564-.572c-7.02,0-11.232,2.7-11.232,6.916,0,4.524,3.8,6.656,10.452,6.656,6.708,0,8.112-3.9,8.112-6.708,0-.936-.052-2.444-.156-4.368A37.366,37.366,0,0,1,324.428,80.8l1.04-1.56a42.639,42.639,0,0,0-15.756-8.268c-.1-2.86-.312-6.344-.364-9.88a145.378,145.378,0,0,0,15.08-1.3V58.132A116.335,116.335,0,0,1,309.3,59.64v-9.2c4.836-.208,9.984-.78,14.924-1.248V47.524A113.4,113.4,0,0,1,309.3,48.98V44.768A30.86,30.86,0,0,1,309.5,41.492Zm46.592.416-1.924-.156a57.149,57.149,0,0,1-1.56,11.648c-3.64.312-7.384.624-9.152.676-1.4.052-2.34.052-3.744,0l.26,1.976c1.092-.156,2.7-.312,3.588-.416,1.716-.1,5.2-.468,8.684-.832-1.456,6.4-5.772,19.968-11.336,27.352l1.664.676c6.24-10.036,9.464-20.9,11.284-28.184,3.016-.26,5.928-.468,7.592-.468,3.38,0,5.98,1.144,5.98,6.5,0,6.136-.936,13.364-2.808,17.472-1.3,2.808-3.12,3.12-5.2,3.12a21.6,21.6,0,0,1-6.4-1.04l.26,1.82a28.765,28.765,0,0,0,5.98.78c2.808,0,5.1-.572,6.656-3.9,2.132-4.16,3.068-12.272,3.068-18.512,0-6.552-3.692-7.644-7.488-7.644-1.352,0-4.212.208-7.332.468.78-3.64,1.4-8.164,1.612-9.464C355.888,43.052,355.992,42.48,356.1,41.908Zm17.888,6.24-1.352.78c3.588,3.952,8.008,12.948,9.724,17.836l1.456-.78C381.94,61.3,377.26,52.048,373.984,48.148Zm51.272-5.564h-1.82a18.976,18.976,0,0,1,.208,3.068c0,2.34,0,6.032-.052,8.944-6.344.52-13.468,1.248-19.136,1.768,0-3.432.052-6.76.052-9.048,0-.988.052-2.34.1-3.016h-1.768a16.584,16.584,0,0,1,.208,3.016c0,.728,0,4.628-.052,9.2-3.328.312-6.136.572-7.8.728-1.092.1-2.548.208-4.316.208l.208,1.924c1.456-.208,2.7-.364,4.264-.572,1.82-.208,4.472-.52,7.644-.832,0,5.512,0,11.544.052,13.78.26,7.54.884,10.244,11.492,10.244,5.564,0,11.908-.52,15.392-.884l.052-1.664A103.29,103.29,0,0,1,414.6,80.544c-10.192,0-9.932-2.808-10.14-8.892-.052-1.768-.052-7.852,0-13.832,5.876-.624,13.1-1.3,19.136-1.716a87.882,87.882,0,0,1-.728,10.712c-.208,1.352-.832,1.612-2.392,1.612a27.245,27.245,0,0,1-5.564-.728l-.052,1.508a36.765,36.765,0,0,0,5.928.676c2.08,0,3.068-.676,3.432-2.548.572-2.7.676-7.956.78-11.336,2.964-.208,5.616-.364,7.592-.364,1.248,0,2.444,0,3.12.052v-1.82c-.884.052-1.82.1-3.12.156-2.236.1-4.836.26-7.54.468.052-2.652.052-6.292.052-8.84C425.1,44.768,425.152,43.52,425.256,42.584ZM450.84,76.7c0-3.484,3.692-5.824,10.4-5.824a27.361,27.361,0,0,1,5.824.624c.1,1.924.156,3.64.156,4.836,0,3.744-2.5,5.824-6.76,5.824C454.064,82.156,450.84,79.92,450.84,76.7Zm17.524-34.684h-2.08a31.27,31.27,0,0,1,.312,4.264V56.884c0,3.536.26,8.684.416,13.052a29.635,29.635,0,0,0-5.72-.572c-8.476,0-11.96,3.38-11.96,7.332,0,4.836,4.472,6.916,11.388,6.916,5.148,0,7.956-2.912,7.956-6.76,0-1.352-.052-3.068-.1-4.992a34.939,34.939,0,0,1,15.5,8.84l.988-1.612a40.018,40.018,0,0,0-16.588-8.84c-.156-4.524-.416-9.776-.416-13.364V54.6c4.368-.052,11.388-.468,16.328-.988L484.328,52a153.766,153.766,0,0,1-16.276,1.04v-6.76A33.357,33.357,0,0,1,468.364,42.012Zm66.144,22.412c0,10.452-9.516,16.172-21.892,17.888l1.04,1.4c12.48-2.08,22.36-7.852,22.36-19.24,0-6.76-5.2-10.3-11.752-10.3-5.876,0-11.856,1.82-15.34,2.652a34.318,34.318,0,0,1-3.9.676l.676,2.132c1.04-.416,2.028-.78,3.744-1.3,3.484-.988,8.528-2.7,14.82-2.7C530.088,55.636,534.508,59.068,534.508,64.424ZM511.264,42.532l-.312,1.664c5.772,1.04,15.444,2.08,20.9,2.444l.26-1.612A133.606,133.606,0,0,1,511.264,42.532Z" transform="translate(-2.756 43.368)" fill="#fff"/>
</svg>
